<?xml version="1.0" encoding="UTF-8"?>
<!DOCTYPE svg PUBLIC "-//W3C//DTD SVG 1.0//EN" "http://www.w3.org/TR/2001/REC-SVG-20010904/DTD/svg10.dtd">
<!-- Creator: CorelDRAW 2021 (64-Bit) -->
<svg xmlns="http://www.w3.org/2000/svg" xml:space="preserve" width="188.836mm" height="40.0236mm" version="1.0" style="shape-rendering:geometricPrecision; text-rendering:geometricPrecision; image-rendering:optimizeQuality; fill-rule:evenodd; clip-rule:evenodd"
viewBox="0 0 17611.58 3732.75"
 xmlns:xlink="http://www.w3.org/1999/xlink"
 xmlns:xodm="http://www.corel.com/coreldraw/odm/2003">
 <defs>
  <style type="text/css">
   <![CDATA[
    .fil1 {fill:url(#id0);fill-rule:nonzero}
    .fil0 {fill:url(#id1);fill-rule:nonzero}
   ]]>
  </style>
  <linearGradient id="id0" gradientUnits="userSpaceOnUse" x1="9031.23" y1="3610.46" x2="9031.43" y2="-67.84">
   <stop offset="0" style="stop-opacity:1; stop-color:#2B1A0B"/>
   <stop offset="0.431373" style="stop-opacity:1; stop-color:#B74437"/>
   <stop offset="1" style="stop-opacity:1; stop-color:#A54936"/>
  </linearGradient>
  <linearGradient id="id1" gradientUnits="userSpaceOnUse" xlink:href="#id0" x1="8613.4" y1="3610.46" x2="8613.56" y2="-67.84">
  </linearGradient>
 </defs>
 <g id="Capa_x0020_1">
  <metadata id="CorelCorpID_0Corel-Layer"/>
  <g id="_2144577246736">
   <path class="fil0" d="M577.47 3610.46l0 -203.82 -360.05 0 0 -458.6 322.7 0 0 -163.05 -322.7 0 0 -1606.81 329.48 0 0 -214 -546.9 0 0 2646.28 577.47 0zm760.44 0l0 -203.82 -373.66 0 0 -2442.47 -217.42 0 0 2646.28 591.08 0zm770.62 -2666.67l0 2683.64c625.05,0 774.51,-207.19 774.51,-475.56 0,-183.44 -129.07,-339.71 -343.08,-373.65l0 -10.19c220.79,-159.69 383.85,-434.84 383.85,-835.66 0,-523.15 -207.23,-971.56 -815.27,-988.57zm214.01 1810.62l0 -1579.6c268.38,67.92 387.25,424.61 387.25,791.48 0,363.5 -125.7,597.9 -387.25,788.12zm0 169.84c23.79,-3.38 50.95,-6.78 71.34,-6.78 180.03,0 278.56,129.07 278.56,244.58 0,142.67 -105.32,268.38 -349.9,268.38l0 -506.18zm1606.27 -611.47c0,-954.54 -173.25,-1382.56 -465.41,-1382.56 -292.12,0 -465.37,428.02 -465.37,1382.56 0,957.96 173.25,1335.02 465.37,1335.02 292.17,0 465.41,-377.07 465.41,-1335.02zm-713.37 0c0,-709.95 81.53,-1168.55 247.95,-1168.55 166.47,0 248,458.6 248,1168.55 0,710 -81.53,1124.43 -248,1124.43 -166.42,0 -247.95,-414.43 -247.95,-1124.43zm903.1 1314.64c608.05,-16.96 815.28,-628.43 815.28,-1338.38 0,-710 -207.23,-1324.87 -815.28,-1345.26l0 2683.64zm214.01 -2452.61c268.38,98.5 387.26,597.86 387.26,1114.23 0,516.33 -118.88,1012.28 -387.26,1107.4l0 -2221.64zm1368.48 2435.65l0 -203.82 -360.05 0 0 -458.6 322.7 0 0 -163.05 -322.7 0 0 -1606.81 329.48 0 0 -214 -546.9 0 0 2646.28 577.47 0zm682.31 -1467.51l0 1229.7c-20.38,20.38 -67.96,33.99 -115.51,33.99 -180.03,0 -261.56,-407.65 -261.56,-1117.6 0,-818.7 108.7,-1148.22 315.92,-1148.22 88.31,0 139.26,23.79 176.62,57.74l0 -217.38c-33.95,-33.99 -91.72,-54.37 -197,-54.37 -339.71,0 -512.96,404.23 -512.96,1362.23 0,954.54 173.25,1321.42 482.39,1321.42 115.47,0 241.17,-64.56 302.31,-139.26l0 -1328.24 -190.22 0zm1269.98 169.83c0,-954.54 -173.25,-1382.56 -465.41,-1382.56 -292.13,0 -465.38,428.02 -465.38,1382.56 0,957.96 173.25,1335.02 465.38,1335.02 292.17,0 465.41,-377.07 465.41,-1335.02zm-713.37 0c0,-709.95 81.52,-1168.55 247.95,-1168.55 166.47,0 248,458.6 248,1168.55 0,710 -81.53,1124.43 -248,1124.43 -166.43,0 -247.95,-414.43 -247.95,-1124.43zm261.55 -1436.92l397.45 -553.73 -237.8 0 -380.43 553.73 220.78 0zm1501.01 2856.88l0 -2768.57 -200.45 0 0 1674.73 -13.56 0 -645.44 -1797.03 0 2768.58 207.23 0 0 -1583.01 13.56 0 638.66 1705.3zm937.09 -105.32c608.04,-16.96 815.27,-628.43 815.27,-1338.38 0,-710 -207.23,-1324.87 -815.27,-1345.26l0 2683.64zm214 -2452.61c268.38,98.5 387.26,597.86 387.26,1114.23 0,516.33 -118.88,1012.28 -387.26,1107.4l0 -2221.64zm1368.48 2435.65l0 -203.82 -360.05 0 0 -458.6 322.7 0 0 -163.05 -322.7 0 0 -1606.81 329.48 0 0 -214 -546.9 0 0 2646.28 577.47 0z"/>
   <path class="fil1" d="M12216.47 2341.72l129.63 0c252.21,0 466.22,-88.79 644.72,-266.41 177.62,-177.62 266.41,-392.51 266.41,-643.84 0,-251.29 -88.79,-466.18 -266.41,-643.8 -178.51,-178.5 -392.51,-267.29 -644.72,-267.29l-129.63 0 0 1821.34zm0 520.38l0 780.57 -520.38 0 0 -3642.68 650.01 0c396.08,0 733.51,140.31 1012.36,419.16 279.73,279.74 419.16,616.28 419.16,1012.32 0,395.2 -139.43,732.62 -419.16,1011.47 -278.85,279.74 -616.28,419.16 -1012.36,419.16l-129.63 0zm1550.22 780.57l0 -3642.68 260.2 0 1300.95 2081.54 0 -2081.54 520.38 0 0 3642.68 -260.19 0 -1300.96 -2081.53 0 2081.53 -520.38 0zm3193.99 -3122.29l0 3122.29 -520.42 0 0 -3122.29 -650.01 0 0 -520.38 1821.33 0 0 520.38 -650.9 0z"/>
  </g>
 </g>
</svg>
